<?xml version="1.0" encoding="utf-8"?>
<!-- Generator: Adobe Illustrator 18.0.0, SVG Export Plug-In . SVG Version: 6.00 Build 0)  -->
<!DOCTYPE svg PUBLIC "-//W3C//DTD SVG 1.1//EN" "http://www.w3.org/Graphics/SVG/1.1/DTD/svg11.dtd">
<svg version="1.1" id="Layer_1" xmlns="http://www.w3.org/2000/svg" xmlns:xlink="http://www.w3.org/1999/xlink" x="0px" y="0px"
	 viewBox="0 0 296 296" style="enable-background:new 0 0 296 296;" xml:space="preserve">
<style type="text/css">
	.st0{fill:#FFFFFF;}
</style>
<path class="st0" d="M148,0C66.3,0,0,66.3,0,148s66.3,148,148,148s148-66.3,148-148S229.7,0,148,0z M232.2,92.6l25.6-14.8
	c2.8-1.6,6.5-0.7,8.1,2.2c1.6,2.8,0.7,6.5-2.2,8.1l-25.6,14.8c-2.8,1.6-6.5,0.7-8.1-2.2C228.4,97.9,229.4,94.2,232.2,92.6z
	 M142.1,17.8c0-3.3,2.7-5.9,5.9-5.9c3.3,0,5.9,2.7,5.9,5.9v29.6c0,3.3-2.7,5.9-5.9,5.9c-3.3,0-5.9-2.7-5.9-5.9V17.8z M79.9,30.1
	c2.8-1.6,6.5-0.7,8.1,2.2l14.8,25.6c1.6,2.8,0.7,6.4-2.2,8.1c-2.8,1.6-6.5,0.7-8.1-2.2L77.8,38.2C76.1,35.3,77.1,31.7,79.9,30.1z
	 M11.8,148c0-3.3,2.7-5.9,5.9-5.9l29.6,0c3.3,0,5.9,2.6,5.9,5.9c0,3.3-2.7,5.9-5.9,5.9l-29.6,0C14.5,153.9,11.8,151.3,11.8,148z
	 M63.8,203.4l-25.6,14.8c-2.8,1.6-6.5,0.7-8.1-2.2c-1.6-2.8-0.7-6.5,2.2-8.1l25.6-14.8c2.8-1.6,6.5-0.7,8.1,2.2
	C67.6,198.2,66.6,201.8,63.8,203.4z M66,100.6c-1.6,2.8-5.3,3.8-8.1,2.2L32.3,88c-2.8-1.6-3.8-5.3-2.2-8.1c1.6-2.8,5.3-3.8,8.1-2.2
	l25.6,14.8C66.6,94.2,67.6,97.8,66,100.6z M102.8,238.1L88,263.7c-1.6,2.8-5.3,3.8-8.1,2.2c-2.8-1.6-3.8-5.3-2.2-8.1l14.8-25.6
	c1.6-2.8,5.3-3.8,8.1-2.2C103.5,231.7,104.4,235.3,102.8,238.1z M153.9,278.2c0,3.3-2.7,5.9-5.9,5.9c-3.3,0-5.9-2.7-5.9-5.9l0-29.6
	c0-3.3,2.6-5.9,5.9-5.9c3.3,0,5.9,2.7,5.9,5.9L153.9,278.2z M216,265.9c-2.8,1.6-6.5,0.7-8.1-2.2l-14.8-25.6
	c-1.6-2.8-0.7-6.5,2.2-8.1c2.8-1.6,6.5-0.7,8.1,2.2l14.8,25.6C219.8,260.7,218.9,264.3,216,265.9z M218.3,38.2l-14.8,25.6
	c-1.6,2.8-5.3,3.8-8.1,2.2c-2.8-1.6-3.8-5.3-2.2-8.1l14.8-25.6c1.6-2.8,5.3-3.8,8.1-2.2C219,31.8,219.9,35.4,218.3,38.2z
	 M265.9,216.1c-1.6,2.8-5.3,3.8-8.1,2.2l-25.6-14.8c-2.8-1.6-3.8-5.3-2.2-8.1c1.6-2.8,5.3-3.8,8.1-2.2l25.6,14.8
	C266.6,209.7,267.5,213.3,265.9,216.1z M278.2,154l-29.6,0c-3.3,0-5.9-2.6-5.9-5.9c0-3.3,2.7-5.9,5.9-5.9l29.6,0
	c3.3,0,5.9,2.7,5.9,5.9C284.2,151.3,281.5,154,278.2,154z"/>
<g>
</g>
<g>
</g>
<g>
</g>
<g>
</g>
<g>
</g>
<g>
</g>
</svg>
